<?xml version="1.0" standalone="no"?>
<!DOCTYPE svg PUBLIC "-//W3C//DTD SVG 20010904//EN"
 "http://www.w3.org/TR/2001/REC-SVG-20010904/DTD/svg10.dtd">
<svg version="1.0" xmlns="http://www.w3.org/2000/svg"
 width="739.000000pt" height="739.000000pt" viewBox="0 0 739.000000 739.000000"
 preserveAspectRatio="xMidYMid meet">
<metadata>
Created by potrace 1.14, written by Peter Selinger 2001-2017
</metadata>
<g transform="translate(0.000000,739.000000) scale(0.100000,-0.100000)"
fill="#000000" stroke="none">
<path d="M3488 7385 c-2 -1 -46 -6 -98 -9 -53 -4 -105 -8 -115 -10 -11 -2 -47
-7 -80 -11 -58 -7 -75 -9 -125 -20 -14 -3 -43 -8 -65 -11 -176 -25 -559 -142
-753 -230 -244 -110 -379 -181 -547 -287 -317 -202 -580 -433 -829 -727 -53
-63 -100 -119 -104 -125 -4 -5 -21 -28 -38 -50 -91 -118 -231 -343 -329 -530
-107 -205 -246 -568 -280 -730 -1 -5 -6 -28 -12 -50 -13 -50 -41 -172 -47
-205 -2 -14 -7 -41 -10 -60 -15 -86 -16 -96 -31 -215 -26 -205 -26 -757 0
-838 2 -6 6 -37 9 -67 5 -51 32 -209 56 -325 29 -143 112 -405 184 -582 41
-103 145 -322 180 -383 144 -244 177 -295 298 -456 190 -254 455 -520 708
-711 95 -71 333 -233 343 -233 3 0 47 -24 98 -53 83 -46 222 -114 359 -175
176 -78 572 -198 765 -231 33 -6 74 -13 90 -15 17 -3 55 -8 85 -12 30 -3 57
-8 61 -9 3 -2 59 -7 125 -12 203 -13 587 -8 729 11 17 2 57 7 90 11 32 3 62 8
65 10 3 1 25 6 50 9 25 3 54 8 65 10 251 52 533 138 751 231 109 47 308 144
374 183 19 11 53 30 75 42 64 35 273 177 365 248 225 173 473 419 651 647 50
63 175 239 206 290 192 310 327 599 412 885 17 58 36 119 41 135 29 95 76 329
96 480 3 28 8 59 10 69 18 96 25 572 11 726 -14 150 -50 389 -72 480 -8 30
-16 66 -19 80 -3 14 -12 50 -21 80 -8 30 -18 66 -21 80 -3 14 -25 85 -50 159
-255 752 -753 1411 -1406 1859 -446 307 -980 520 -1518 607 -83 14 -101 16
-256 31 -55 5 -521 13 -526 9z"/>
</g>
</svg>
